P3
# CREATOR: GIMP PNM Filter Version 1.1
24 21
255
0
0
0
255
255
255
0
0
0
0
0
0
255
255
255
0
0
0
0
0
0
255
255
255
0
0
0
0
0
0
255
255
255
0
0
0
0
0
0
255
255
255
0
0
0
0
0
0
255
255
255
0
0
0
0
0
0
255
255
255
0
0
0
255
255
255
255
255
255
255
255
255
1
8
1
255
255
255
1
8
1
1
8
1
255
255
255
1
8
1
1
8
1
255
255
255
1
8
1
1
8
1
255
255
255
1
8
1
1
8
1
255
255
255
1
8
1
0
0
0
255
255
255
0
0
0
255
255
255
255
255
255
255
255
255
1
8
1
255
255
255
1
8
1
1
8
1
255
255
255
1
8
1
1
8
1
255
255
255
1
8
1
1
8
1
255
255
255
1
8
1
1
8
1
255
255
255
1
8
1
1
8
1
255
255
255
1
8
1
255
255
255
255
255
255
255
255
255
0
0
0
255
255
255
0
0
0
1
8
1
255
255
255
1
8
1
1
8
1
255
255
255
1
8
1
1
8
1
255
255
255
1
8
1
1
8
1
255
255
255
1
8
1
1
8
1
255
255
255
1
8
1
255
255
255
255
255
255
255
255
255
0
0
0
255
255
255
0
0
0
0
0
0
255
255
255
0
0
0
1
8
1
255
255
255
1
8
1
0
0
0
255
255
255
0
0
0
0
0
0
255
255
255
0
0
0
0
0
0
255
255
255
0
0
0
255
255
255
255
255
255
255
255
255
0
0
0
255
255
255
0
0
0
0
0
0
255
255
255
0
0
0
0
0
0
255
255
255
0
0
0
0
0
0
255
255
255
0
0
0
0
0
0
255
255
255
0
0
0
0
0
0
255
255
255
0
0
0
255
255
255
255
255
255
255
255
255
0
0
0
255
255
255
0
0
0
0
0
0
255
255
255
0
0
0
0
0
0
255
255
255
0
0
0
0
0
0
255
255
255
0
0
0
0
0
0
255
255
255
0
0
0
1
8
1
255
255
255
1
8
1
255
255
255
255
255
255
255
255
255
1
8
1
255
255
255
1
8
1
1
8
1
255
255
255
1
8
1
1
8
1
255
255
255
1
8
1
1
8
1
255
255
255
1
8
1
1
8
1
255
255
255
1
8
1
1
8
1
255
255
255
1
8
1
0
0
0
31
254
31
0
0
0
0
0
0
31
254
31
0
0
0
0
0
0
31
254
31
0
0
0
0
0
0
31
254
31
0
0
0
0
0
0
31
254
31
0
0
0
0
0
0
31
254
31
0
0
0
0
0
0
31
254
31
0
0
0
31
254
31
31
254
31
31
254
31
1
8
1
31
254
31
1
8
1
1
8
1
31
254
31
1
8
1
1
8
1
31
254
31
1
8
1
1
8
1
31
254
31
1
8
1
1
8
1
31
254
31
1
8
1
0
0
0
31
254
31
0
0
0
31
254
31
31
254
31
31
254
31
1
8
1
31
254
31
1
8
1
1
8
1
31
254
31
1
8
1
1
8
1
31
254
31
1
8
1
1
8
1
31
254
31
1
8
1
1
8
1
31
254
31
1
8
1
1
8
1
31
254
31
1
8
1
31
254
31
31
254
31
31
254
31
0
0
0
31
254
31
0
0
0
1
8
1
31
254
31
1
8
1
1
8
1
31
254
31
1
8
1
1
8
1
31
254
31
1
8
1
1
8
1
31
254
31
1
8
1
1
8
1
31
254
31
1
8
1
31
254
31
31
254
31
31
254
31
0
0
0
31
254
31
0
0
0
0
0
0
31
254
31
0
0
0
1
8
1
31
254
31
1
8
1
0
0
0
31
254
31
0
0
0
0
0
0
31
254
31
0
0
0
0
0
0
31
254
31
0
0
0
31
254
31
31
254
31
31
254
31
0
0
0
31
254
31
0
0
0
0
0
0
31
254
31
0
0
0
0
0
0
31
254
31
0
0
0
0
0
0
31
254
31
0
0
0
0
0
0
31
254
31
0
0
0
0
0
0
31
254
31
0
0
0
31
254
31
31
254
31
31
254
31
0
0
0
31
254
31
0
0
0
0
0
0
31
254
31
0
0
0
0
0
0
31
254
31
0
0
0
0
0
0
31
254
31
0
0
0
0
0
0
31
254
31
0
0
0
1
8
1
31
254
31
1
8
1
31
254
31
31
254
31
31
254
31
1
8
1
31
254
31
1
8
1
1
8
1
31
254
31
1
8
1
1
8
1
31
254
31
1
8
1
1
8
1
31
254
31
1
8
1
1
8
1
31
254
31
1
8
1
1
8
1
31
254
31
1
8
1
0
0
0
254
31
31
0
0
0
0
0
0
254
31
31
0
0
0
0
0
0
254
31
31
0
0
0
0
0
0
254
31
31
0
0
0
0
0
0
254
31
31
0
0
0
0
0
0
254
31
31
0
0
0
0
0
0
254
31
31
0
0
0
254
31
31
254
31
31
254
31
31
1
8
1
254
31
31
1
8
1
1
8
1
254
31
31
1
8
1
1
8
1
254
31
31
1
8
1
1
8
1
254
31
31
1
8
1
1
8
1
254
31
31
1
8
1
0
0
0
254
31
31
0
0
0
254
31
31
254
31
31
254
31
31
1
8
1
254
31
31
1
8
1
1
8
1
254
31
31
1
8
1
1
8
1
254
31
31
1
8
1
1
8
1
254
31
31
1
8
1
1
8
1
254
31
31
1
8
1
1
8
1
254
31
31
1
8
1
254
31
31
254
31
31
254
31
31
0
0
0
254
31
31
0
0
0
1
8
1
254
31
31
1
8
1
1
8
1
254
31
31
1
8
1
1
8
1
254
31
31
1
8
1
1
8
1
254
31
31
1
8
1
1
8
1
254
31
31
1
8
1
254
31
31
254
31
31
254
31
31
0
0
0
254
31
31
0
0
0
0
0
0
254
31
31
0
0
0
1
8
1
254
31
31
1
8
1
0
0
0
254
31
31
0
0
0
0
0
0
254
31
31
0
0
0
0
0
0
254
31
31
0
0
0
254
31
31
254
31
31
254
31
31
0
0
0
254
31
31
0
0
0
0
0
0
254
31
31
0
0
0
0
0
0
254
31
31
0
0
0
0
0
0
254
31
31
0
0
0
0
0
0
254
31
31
0
0
0
0
0
0
254
31
31
0
0
0
254
31
31
254
31
31
254
31
31
0
0
0
254
31
31
0
0
0
0
0
0
254
31
31
0
0
0
0
0
0
254
31
31
0
0
0
0
0
0
254
31
31
0
0
0
0
0
0
254
31
31
0
0
0
1
8
1
254
31
31
1
8
1
254
31
31
254
31
31
254
31
31
1
8
1
254
31
31
1
8
1
1
8
1
254
31
31
1
8
1
1
8
1
254
31
31
1
8
1
1
8
1
254
31
31
1
8
1
1
8
1
254
31
31
1
8
1
1
8
1
254
31
31
1
8
1
