P3
# CREATOR: GIMP PNM Filter Version 1.1
22 24
255
0
0
0
0
0
0
254
254
254
0
0
0
0
0
0
0
0
0
0
0
0
0
0
0
254
254
254
0
0
0
0
0
0
0
0
0
0
0
0
254
254
254
0
0
0
0
0
0
0
0
0
0
0
0
0
0
0
254
254
254
0
0
0
0
0
0
0
0
0
0
0
0
0
0
0
254
254
254
0
0
0
0
0
0
0
0
0
254
254
254
0
0
0
0
0
0
0
0
0
254
254
254
0
0
0
0
0
0
254
254
254
0
0
0
0
0
0
0
0
0
254
254
254
0
0
0
0
0
0
254
254
254
0
0
0
0
0
0
254
254
254
254
254
254
254
254
254
254
254
254
254
254
254
254
254
254
254
254
254
0
0
0
0
0
0
254
254
254
0
0
0
254
254
254
254
254
254
254
254
254
254
254
254
254
254
254
254
254
254
254
254
254
0
0
0
254
254
254
0
0
0
254
254
254
254
254
254
0
0
0
254
254
254
254
254
254
254
254
254
0
0
0
254
254
254
254
254
254
0
0
0
254
254
254
254
254
254
254
254
254
0
0
0
254
254
254
254
254
254
254
254
254
0
0
0
254
254
254
254
254
254
254
254
254
254
254
254
254
254
254
254
254
254
254
254
254
254
254
254
254
254
254
254
254
254
254
254
254
254
254
254
254
254
254
254
254
254
254
254
254
254
254
254
254
254
254
254
254
254
254
254
254
254
254
254
254
254
254
254
254
254
254
254
254
254
254
254
254
254
254
254
254
254
0
0
0
254
254
254
254
254
254
254
254
254
254
254
254
254
254
254
254
254
254
254
254
254
0
0
0
254
254
254
0
0
0
254
254
254
254
254
254
254
254
254
254
254
254
254
254
254
254
254
254
254
254
254
254
254
254
254
254
254
0
0
0
254
254
254
0
0
0
254
254
254
0
0
0
0
0
0
0
0
0
0
0
0
0
0
0
254
254
254
0
0
0
254
254
254
0
0
0
0
0
0
254
254
254
0
0
0
0
0
0
0
0
0
0
0
0
0
0
0
254
254
254
0
0
0
0
0
0
0
0
0
0
0
0
0
0
0
254
254
254
254
254
254
0
0
0
254
254
254
254
254
254
0
0
0
0
0
0
0
0
0
0
0
0
254
254
254
0
0
0
0
0
0
0
0
0
0
0
0
0
0
0
0
0
0
0
0
0
254
254
254
0
0
0
0
0
0
0
0
0
31
254
31
0
0
0
0
0
0
0
0
0
0
0
0
0
0
0
31
254
31
0
0
0
0
0
0
0
0
0
0
0
0
31
254
31
0
0
0
0
0
0
0
0
0
0
0
0
0
0
0
31
254
31
0
0
0
0
0
0
0
0
0
0
0
0
0
0
0
31
254
31
0
0
0
0
0
0
0
0
0
31
254
31
0
0
0
0
0
0
0
0
0
31
254
31
0
0
0
0
0
0
31
254
31
0
0
0
0
0
0
0
0
0
31
254
31
0
0
0
0
0
0
31
254
31
0
0
0
0
0
0
31
254
31
31
254
31
31
254
31
31
254
31
31
254
31
31
254
31
31
254
31
0
0
0
0
0
0
31
254
31
0
0
0
31
254
31
31
254
31
31
254
31
31
254
31
31
254
31
31
254
31
31
254
31
0
0
0
31
254
31
0
0
0
31
254
31
31
254
31
0
0
0
31
254
31
31
254
31
31
254
31
0
0
0
31
254
31
31
254
31
0
0
0
31
254
31
31
254
31
31
254
31
0
0
0
31
254
31
31
254
31
31
254
31
0
0
0
31
254
31
31
254
31
31
254
31
31
254
31
31
254
31
31
254
31
31
254
31
31
254
31
31
254
31
31
254
31
31
254
31
31
254
31
31
254
31
31
254
31
31
254
31
31
254
31
31
254
31
31
254
31
31
254
31
31
254
31
31
254
31
31
254
31
31
254
31
31
254
31
31
254
31
31
254
31
0
0
0
31
254
31
31
254
31
31
254
31
31
254
31
31
254
31
31
254
31
31
254
31
0
0
0
31
254
31
0
0
0
31
254
31
31
254
31
31
254
31
31
254
31
31
254
31
31
254
31
31
254
31
31
254
31
31
254
31
0
0
0
31
254
31
0
0
0
31
254
31
0
0
0
0
0
0
0
0
0
0
0
0
0
0
0
31
254
31
0
0
0
31
254
31
0
0
0
0
0
0
31
254
31
0
0
0
0
0
0
0
0
0
0
0
0
0
0
0
31
254
31
0
0
0
0
0
0
0
0
0
0
0
0
0
0
0
31
254
31
31
254
31
0
0
0
31
254
31
31
254
31
0
0
0
0
0
0
0
0
0
0
0
0
31
254
31
0
0
0
0
0
0
0
0
0
0
0
0
0
0
0
0
0
0
0
0
0
31
254
31
0
0
0
0
0
0
0
0
0
254
31
31
0
0
0
0
0
0
0
0
0
0
0
0
0
0
0
254
31
31
0
0
0
0
0
0
0
0
0
0
0
0
254
31
31
0
0
0
0
0
0
0
0
0
0
0
0
0
0
0
254
31
31
0
0
0
0
0
0
0
0
0
0
0
0
0
0
0
254
31
31
0
0
0
0
0
0
0
0
0
254
31
31
0
0
0
0
0
0
0
0
0
254
31
31
0
0
0
0
0
0
254
31
31
0
0
0
0
0
0
0
0
0
254
31
31
0
0
0
0
0
0
254
31
31
0
0
0
0
0
0
254
31
31
254
31
31
254
31
31
254
31
31
254
31
31
254
31
31
254
31
31
0
0
0
0
0
0
254
31
31
0
0
0
254
31
31
254
31
31
254
31
31
254
31
31
254
31
31
254
31
31
254
31
31
0
0
0
254
31
31
0
0
0
254
31
31
254
31
31
0
0
0
254
31
31
254
31
31
254
31
31
0
0
0
254
31
31
254
31
31
0
0
0
254
31
31
254
31
31
254
31
31
0
0
0
254
31
31
254
31
31
254
31
31
0
0
0
254
31
31
254
31
31
254
31
31
254
31
31
254
31
31
254
31
31
254
31
31
254
31
31
254
31
31
254
31
31
254
31
31
254
31
31
254
31
31
254
31
31
254
31
31
254
31
31
254
31
31
254
31
31
254
31
31
254
31
31
254
31
31
254
31
31
254
31
31
254
31
31
254
31
31
254
31
31
0
0
0
254
31
31
254
31
31
254
31
31
254
31
31
254
31
31
254
31
31
254
31
31
0
0
0
254
31
31
0
0
0
254
31
31
254
31
31
254
31
31
254
31
31
254
31
31
254
31
31
254
31
31
254
31
31
254
31
31
0
0
0
254
31
31
0
0
0
254
31
31
0
0
0
0
0
0
0
0
0
0
0
0
0
0
0
254
31
31
0
0
0
254
31
31
0
0
0
0
0
0
254
31
31
0
0
0
0
0
0
0
0
0
0
0
0
0
0
0
254
31
31
0
0
0
0
0
0
0
0
0
0
0
0
0
0
0
254
31
31
254
31
31
0
0
0
254
31
31
254
31
31
0
0
0
0
0
0
0
0
0
0
0
0
254
31
31
0
0
0
0
0
0
0
0
0
0
0
0
0
0
0
0
0
0
0
0
0
254
31
31
0
0
0
