P3
# CREATOR: GIMP PNM Filter Version 1.1
16 21
255
8
1
1
8
1
1
8
1
1
8
1
1
8
1
1
255
255
255
255
255
255
255
255
255
255
255
255
255
255
255
255
255
255
8
1
1
8
1
1
8
1
1
8
1
1
8
1
1
8
1
1
8
1
1
8
1
1
255
255
255
255
255
255
255
255
255
255
255
255
255
255
255
255
255
255
255
255
255
255
255
255
255
255
255
255
255
255
8
1
1
8
1
1
8
1
1
8
1
1
8
1
1
255
255
255
255
255
255
255
255
255
255
255
255
255
255
255
255
255
255
255
255
255
255
255
255
255
255
255
255
255
255
255
255
255
255
255
255
8
1
1
8
1
1
8
1
1
255
255
255
255
255
255
8
1
1
255
255
255
255
255
255
8
1
1
255
255
255
255
255
255
8
1
1
255
255
255
255
255
255
8
1
1
255
255
255
255
255
255
8
1
1
255
255
255
255
255
255
255
255
255
255
255
255
255
255
255
255
255
255
255
255
255
255
255
255
255
255
255
255
255
255
255
255
255
255
255
255
255
255
255
255
255
255
255
255
255
255
255
255
8
1
1
8
1
1
255
255
255
255
255
255
255
255
255
8
1
1
8
1
1
255
255
255
255
255
255
8
1
1
8
1
1
255
255
255
255
255
255
255
255
255
8
1
1
8
1
1
8
1
1
0
0
0
8
1
1
255
255
255
8
1
1
8
1
1
8
1
1
8
1
1
8
1
1
8
1
1
0
0
0
8
1
1
255
255
255
8
1
1
8
1
1
8
1
1
8
1
1
8
1
1
8
1
1
8
1
1
8
1
1
31
254
31
31
254
31
31
254
31
31
254
31
31
254
31
31
254
31
8
1
1
8
1
1
8
1
1
8
1
1
8
1
1
8
1
1
8
1
1
8
1
1
31
254
31
31
254
31
31
254
31
31
254
31
31
254
31
31
254
31
31
254
31
31
254
31
31
254
31
31
254
31
8
1
1
8
1
1
8
1
1
8
1
1
8
1
1
31
254
31
31
254
31
31
254
31
31
254
31
31
254
31
31
254
31
31
254
31
31
254
31
31
254
31
31
254
31
31
254
31
31
254
31
8
1
1
8
1
1
8
1
1
31
254
31
31
254
31
8
1
1
31
254
31
31
254
31
8
1
1
31
254
31
31
254
31
8
1
1
31
254
31
31
254
31
8
1
1
31
254
31
31
254
31
8
1
1
31
254
31
31
254
31
31
254
31
31
254
31
31
254
31
31
254
31
31
254
31
31
254
31
31
254
31
31
254
31
31
254
31
31
254
31
31
254
31
31
254
31
31
254
31
31
254
31
8
1
1
8
1
1
31
254
31
31
254
31
31
254
31
8
1
1
8
1
1
31
254
31
31
254
31
8
1
1
8
1
1
31
254
31
31
254
31
31
254
31
8
1
1
8
1
1
8
1
1
0
0
0
8
1
1
31
254
31
8
1
1
8
1
1
8
1
1
8
1
1
8
1
1
8
1
1
0
0
0
8
1
1
31
254
31
8
1
1
8
1
1
8
1
1
8
1
1
8
1
1
8
1
1
8
1
1
8
1
1
254
31
31
254
31
31
254
31
31
254
31
31
254
31
31
254
31
31
8
1
1
8
1
1
8
1
1
8
1
1
8
1
1
8
1
1
8
1
1
8
1
1
254
31
31
254
31
31
254
31
31
254
31
31
254
31
31
254
31
31
254
31
31
254
31
31
254
31
31
254
31
31
8
1
1
8
1
1
8
1
1
8
1
1
8
1
1
254
31
31
254
31
31
254
31
31
254
31
31
254
31
31
254
31
31
254
31
31
254
31
31
254
31
31
254
31
31
254
31
31
254
31
31
8
1
1
8
1
1
8
1
1
254
31
31
254
31
31
8
1
1
254
31
31
254
31
31
8
1
1
254
31
31
254
31
31
8
1
1
254
31
31
254
31
31
8
1
1
254
31
31
254
31
31
8
1
1
254
31
31
254
31
31
254
31
31
254
31
31
254
31
31
254
31
31
254
31
31
254
31
31
254
31
31
254
31
31
254
31
31
254
31
31
254
31
31
254
31
31
254
31
31
254
31
31
8
1
1
8
1
1
254
31
31
254
31
31
254
31
31
8
1
1
8
1
1
254
31
31
254
31
31
8
1
1
8
1
1
254
31
31
254
31
31
254
31
31
8
1
1
8
1
1
8
1
1
0
0
0
8
1
1
254
31
31
8
1
1
8
1
1
8
1
1
8
1
1
8
1
1
8
1
1
0
0
0
8
1
1
254
31
31
8
1
1
8
1
1
8
1
1
