P3
# CREATOR: GIMP PNM Filter Version 1.1
24 8
255
255
255
255
8
1
1
8
1
1
8
1
1
255
255
255
8
1
1
8
1
1
255
255
255
31
254
31
8
1
1
8
1
1
8
1
1
31
254
31
8
1
1
8
1
1
31
254
31
254
31
31
8
1
1
8
1
1
8
1
1
254
31
31
8
1
1
8
1
1
254
31
31
8
1
1
8
1
1
255
255
255
8
1
1
8
1
1
8
1
1
255
255
255
8
1
1
8
1
1
8
1
1
31
254
31
8
1
1
8
1
1
8
1
1
31
254
31
8
1
1
8
1
1
8
1
1
254
31
31
8
1
1
8
1
1
8
1
1
254
31
31
8
1
1
8
1
1
255
255
255
255
255
255
255
255
255
255
255
255
255
255
255
255
255
255
8
1
1
8
1
1
31
254
31
31
254
31
31
254
31
31
254
31
31
254
31
31
254
31
8
1
1
8
1
1
254
31
31
254
31
31
254
31
31
254
31
31
254
31
31
254
31
31
8
1
1
255
255
255
255
255
255
255
255
255
255
255
255
255
255
255
255
255
255
255
255
255
255
255
255
31
254
31
31
254
31
31
254
31
31
254
31
31
254
31
31
254
31
31
254
31
31
254
31
254
31
31
254
31
31
254
31
31
254
31
31
254
31
31
254
31
31
254
31
31
254
31
31
255
255
255
255
255
255
255
255
255
255
255
255
255
255
255
255
255
255
255
255
255
255
255
255
31
254
31
31
254
31
31
254
31
31
254
31
31
254
31
31
254
31
31
254
31
31
254
31
254
31
31
254
31
31
254
31
31
254
31
31
254
31
31
254
31
31
254
31
31
254
31
31
8
1
1
255
255
255
255
255
255
255
255
255
255
255
255
255
255
255
255
255
255
8
1
1
8
1
1
31
254
31
31
254
31
31
254
31
31
254
31
31
254
31
31
254
31
8
1
1
8
1
1
254
31
31
254
31
31
254
31
31
254
31
31
254
31
31
254
31
31
8
1
1
8
1
1
8
1
1
255
255
255
8
1
1
8
1
1
255
255
255
8
1
1
8
1
1
8
1
1
8
1
1
31
254
31
8
1
1
8
1
1
31
254
31
8
1
1
8
1
1
8
1
1
8
1
1
254
31
31
8
1
1
8
1
1
254
31
31
8
1
1
8
1
1
255
255
255
8
1
1
8
1
1
255
255
255
8
1
1
8
1
1
8
1
1
255
255
255
31
254
31
8
1
1
8
1
1
31
254
31
8
1
1
8
1
1
8
1
1
31
254
31
254
31
31
8
1
1
8
1
1
254
31
31
8
1
1
8
1
1
8
1
1
254
31
31
