P3
# CREATOR: GIMP PNM Filter Version 1.1
3 7
255
255
255
255
31
254
31
254
31
31
255
255
255
31
254
31
254
31
31
255
255
255
31
254
31
254
31
31
255
255
255
31
254
31
254
31
31
255
255
255
31
254
31
254
31
31
255
255
255
31
254
31
254
31
31
255
255
255
31
254
31
254
31
31
