P3
# CREATOR: GIMP PNM Filter Version 1.1
32 24
255
1
8
1
1
8
1
1
8
1
1
8
1
1
8
1
1
8
1
255
255
255
1
8
1
1
8
1
1
8
1
1
8
1
1
8
1
1
8
1
1
8
1
1
8
1
1
8
1
1
8
1
1
8
1
1
8
1
255
255
255
1
8
1
1
8
1
1
8
1
1
8
1
1
8
1
1
8
1
1
8
1
1
8
1
1
8
1
255
255
255
1
8
1
1
8
1
1
8
1
1
8
1
1
8
1
1
8
1
1
8
1
1
8
1
1
8
1
1
8
1
1
8
1
1
8
1
1
8
1
255
255
255
1
8
1
1
8
1
1
8
1
1
8
1
255
255
255
1
8
1
1
8
1
1
8
1
1
8
1
1
8
1
255
255
255
1
8
1
1
8
1
1
8
1
1
8
1
255
255
255
255
255
255
1
8
1
1
8
1
255
255
255
1
8
1
1
8
1
1
8
1
1
8
1
1
8
1
1
8
1
255
255
255
1
8
1
255
255
255
1
8
1
255
255
255
1
8
1
1
8
1
1
8
1
1
8
1
1
8
1
1
8
1
1
8
1
1
8
1
255
255
255
1
8
1
1
8
1
1
8
1
1
8
1
255
255
255
255
255
255
1
8
1
1
8
1
1
8
1
1
8
1
1
8
1
1
8
1
1
8
1
1
8
1
1
8
1
255
255
255
1
8
1
1
8
1
255
255
255
1
8
1
1
8
1
1
8
1
1
8
1
1
8
1
1
8
1
1
8
1
1
8
1
1
8
1
1
8
1
1
8
1
1
8
1
1
8
1
1
8
1
1
8
1
255
255
255
1
8
1
1
8
1
1
8
1
1
8
1
1
8
1
1
8
1
1
8
1
255
255
255
1
8
1
1
8
1
1
8
1
1
8
1
1
8
1
1
8
1
1
8
1
1
8
1
255
255
255
255
255
255
1
8
1
255
255
255
255
255
255
1
8
1
1
8
1
1
8
1
1
8
1
1
8
1
255
255
255
1
8
1
1
8
1
255
255
255
1
8
1
255
255
255
255
255
255
1
8
1
1
8
1
255
255
255
255
255
255
1
8
1
1
8
1
1
8
1
255
255
255
1
8
1
255
255
255
1
8
1
1
8
1
1
8
1
255
255
255
1
8
1
255
255
255
255
255
255
1
8
1
255
255
255
1
8
1
255
255
255
1
8
1
1
8
1
1
8
1
1
8
1
1
8
1
255
255
255
1
8
1
1
8
1
1
8
1
1
8
1
255
255
255
255
255
255
255
255
255
1
8
1
1
8
1
1
8
1
255
255
255
1
8
1
1
8
1
1
8
1
1
8
1
1
8
1
255
255
255
255
255
255
255
255
255
255
255
255
255
255
255
255
255
255
255
255
255
255
255
255
1
8
1
1
8
1
255
255
255
1
8
1
1
8
1
1
8
1
1
8
1
1
8
1
255
255
255
255
255
255
255
255
255
255
255
255
255
255
255
255
255
255
255
255
255
255
255
255
255
255
255
1
8
1
1
8
1
1
8
1
1
8
1
1
8
1
1
8
1
255
255
255
255
255
255
255
255
255
255
255
255
255
255
255
255
255
255
255
255
255
255
255
255
255
255
255
255
255
255
1
8
1
255
255
255
1
8
1
255
255
255
1
8
1
1
8
1
255
255
255
255
255
255
1
8
1
255
255
255
255
255
255
255
255
255
255
255
255
255
255
255
255
255
255
255
255
255
1
8
1
1
8
1
255
255
255
1
8
1
1
8
1
1
8
1
1
8
1
1
8
1
1
8
1
1
8
1
31
254
31
1
8
1
1
8
1
1
8
1
1
8
1
1
8
1
1
8
1
1
8
1
1
8
1
1
8
1
1
8
1
1
8
1
1
8
1
31
254
31
1
8
1
1
8
1
1
8
1
1
8
1
1
8
1
1
8
1
1
8
1
1
8
1
1
8
1
31
254
31
1
8
1
1
8
1
1
8
1
1
8
1
1
8
1
1
8
1
1
8
1
1
8
1
1
8
1
1
8
1
1
8
1
1
8
1
1
8
1
31
254
31
1
8
1
1
8
1
1
8
1
1
8
1
31
254
31
1
8
1
1
8
1
1
8
1
1
8
1
1
8
1
31
254
31
1
8
1
1
8
1
1
8
1
1
8
1
31
254
31
31
254
31
1
8
1
1
8
1
31
254
31
1
8
1
1
8
1
1
8
1
1
8
1
1
8
1
1
8
1
31
254
31
1
8
1
31
254
31
1
8
1
31
254
31
1
8
1
1
8
1
1
8
1
1
8
1
1
8
1
1
8
1
1
8
1
1
8
1
31
254
31
1
8
1
1
8
1
1
8
1
1
8
1
31
254
31
31
254
31
1
8
1
1
8
1
1
8
1
1
8
1
1
8
1
1
8
1
1
8
1
1
8
1
1
8
1
31
254
31
1
8
1
1
8
1
31
254
31
1
8
1
1
8
1
1
8
1
1
8
1
1
8
1
1
8
1
1
8
1
1
8
1
1
8
1
1
8
1
1
8
1
1
8
1
1
8
1
1
8
1
1
8
1
31
254
31
1
8
1
1
8
1
1
8
1
1
8
1
1
8
1
1
8
1
1
8
1
31
254
31
1
8
1
1
8
1
1
8
1
1
8
1
1
8
1
1
8
1
1
8
1
1
8
1
31
254
31
31
254
31
1
8
1
31
254
31
31
254
31
1
8
1
1
8
1
1
8
1
1
8
1
1
8
1
31
254
31
1
8
1
1
8
1
31
254
31
1
8
1
31
254
31
31
254
31
1
8
1
1
8
1
31
254
31
31
254
31
1
8
1
1
8
1
1
8
1
31
254
31
1
8
1
31
254
31
1
8
1
1
8
1
1
8
1
31
254
31
1
8
1
31
254
31
31
254
31
1
8
1
31
254
31
1
8
1
31
254
31
1
8
1
1
8
1
1
8
1
1
8
1
1
8
1
31
254
31
1
8
1
1
8
1
1
8
1
1
8
1
31
254
31
31
254
31
31
254
31
1
8
1
1
8
1
1
8
1
31
254
31
1
8
1
1
8
1
1
8
1
1
8
1
1
8
1
31
254
31
31
254
31
31
254
31
31
254
31
31
254
31
31
254
31
31
254
31
31
254
31
1
8
1
1
8
1
31
254
31
1
8
1
1
8
1
1
8
1
1
8
1
1
8
1
31
254
31
31
254
31
31
254
31
31
254
31
31
254
31
31
254
31
31
254
31
31
254
31
31
254
31
1
8
1
1
8
1
1
8
1
1
8
1
1
8
1
1
8
1
31
254
31
31
254
31
31
254
31
31
254
31
31
254
31
31
254
31
31
254
31
31
254
31
31
254
31
31
254
31
1
8
1
31
254
31
1
8
1
31
254
31
1
8
1
1
8
1
31
254
31
31
254
31
1
8
1
31
254
31
31
254
31
31
254
31
31
254
31
31
254
31
31
254
31
31
254
31
1
8
1
1
8
1
31
254
31
1
8
1
1
8
1
1
8
1
1
8
1
1
8
1
1
8
1
1
8
1
254
31
31
1
8
1
1
8
1
1
8
1
1
8
1
1
8
1
1
8
1
1
8
1
1
8
1
1
8
1
1
8
1
1
8
1
1
8
1
254
31
31
1
8
1
1
8
1
1
8
1
1
8
1
1
8
1
1
8
1
1
8
1
1
8
1
1
8
1
254
31
31
1
8
1
1
8
1
1
8
1
1
8
1
1
8
1
1
8
1
1
8
1
1
8
1
1
8
1
1
8
1
1
8
1
1
8
1
1
8
1
254
31
31
1
8
1
1
8
1
1
8
1
1
8
1
254
31
31
1
8
1
1
8
1
1
8
1
1
8
1
1
8
1
254
31
31
1
8
1
1
8
1
1
8
1
1
8
1
254
31
31
254
31
31
1
8
1
1
8
1
254
31
31
1
8
1
1
8
1
1
8
1
1
8
1
1
8
1
1
8
1
254
31
31
1
8
1
254
31
31
1
8
1
254
31
31
1
8
1
1
8
1
1
8
1
1
8
1
1
8
1
1
8
1
1
8
1
1
8
1
254
31
31
1
8
1
1
8
1
1
8
1
1
8
1
254
31
31
254
31
31
1
8
1
1
8
1
1
8
1
1
8
1
1
8
1
1
8
1
1
8
1
1
8
1
1
8
1
254
31
31
1
8
1
1
8
1
254
31
31
1
8
1
1
8
1
1
8
1
1
8
1
1
8
1
1
8
1
1
8
1
1
8
1
1
8
1
1
8
1
1
8
1
1
8
1
1
8
1
1
8
1
1
8
1
254
31
31
1
8
1
1
8
1
1
8
1
1
8
1
1
8
1
1
8
1
1
8
1
254
31
31
1
8
1
1
8
1
1
8
1
1
8
1
1
8
1
1
8
1
1
8
1
1
8
1
254
31
31
254
31
31
1
8
1
254
31
31
254
31
31
1
8
1
1
8
1
1
8
1
1
8
1
1
8
1
254
31
31
1
8
1
1
8
1
254
31
31
1
8
1
254
31
31
254
31
31
1
8
1
1
8
1
254
31
31
254
31
31
1
8
1
1
8
1
1
8
1
254
31
31
1
8
1
254
31
31
1
8
1
1
8
1
1
8
1
254
31
31
1
8
1
254
31
31
254
31
31
1
8
1
254
31
31
1
8
1
254
31
31
1
8
1
1
8
1
1
8
1
1
8
1
1
8
1
254
31
31
1
8
1
1
8
1
1
8
1
1
8
1
254
31
31
254
31
31
254
31
31
1
8
1
1
8
1
1
8
1
254
31
31
1
8
1
1
8
1
1
8
1
1
8
1
1
8
1
254
31
31
254
31
31
254
31
31
254
31
31
254
31
31
254
31
31
254
31
31
254
31
31
1
8
1
1
8
1
254
31
31
1
8
1
1
8
1
1
8
1
1
8
1
1
8
1
254
31
31
254
31
31
254
31
31
254
31
31
254
31
31
254
31
31
254
31
31
254
31
31
254
31
31
1
8
1
1
8
1
1
8
1
1
8
1
1
8
1
1
8
1
254
31
31
254
31
31
254
31
31
254
31
31
254
31
31
254
31
31
254
31
31
254
31
31
254
31
31
254
31
31
1
8
1
254
31
31
1
8
1
254
31
31
1
8
1
1
8
1
254
31
31
254
31
31
1
8
1
254
31
31
254
31
31
254
31
31
254
31
31
254
31
31
254
31
31
254
31
31
1
8
1
1
8
1
254
31
31
1
8
1
