P3
# CREATOR: GIMP PNM Filter Version 1.1
13 8
255
0
0
0
0
0
0
0
0
0
0
0
0
254
254
254
0
0
0
0
0
0
0
0
0
254
254
254
0
0
0
0
0
0
0
0
0
0
0
0
0
0
0
254
254
254
0
0
0
0
0
0
0
0
0
254
254
254
0
0
0
254
254
254
0
0
0
0
0
0
0
0
0
254
254
254
0
0
0
0
0
0
0
0
0
254
254
254
0
0
0
0
0
0
0
0
0
0
0
0
0
0
0
0
0
0
0
0
0
254
254
254
0
0
0
0
0
0
0
0
0
0
0
0
0
0
0
254
254
254
0
0
0
0
0
0
0
0
0
0
0
0
0
0
0
254
254
254
0
0
0
0
0
0
0
0
0
254
254
254
254
254
254
0
0
0
0
0
0
0
0
0
0
0
0
0
0
0
0
0
0
0
0
0
0
0
0
0
0
0
254
254
254
254
254
254
0
0
0
0
0
0
0
0
0
254
254
254
0
0
0
0
0
0
0
0
0
0
0
0
0
0
0
254
254
254
0
0
0
0
0
0
0
0
0
0
0
0
0
0
0
254
254
254
0
0
0
0
0
0
254
254
254
0
0
0
254
254
254
0
0
0
0
0
0
254
254
254
0
0
0
0
0
0
0
0
0
254
254
254
0
0
0
0
0
0
254
254
254
0
0
0
0
0
0
0
0
0
254
254
254
0
0
0
0
0
0
254
254
254
0
0
0
