P3
# CREATOR: GIMP PNM Filter Version 1.1
3 7
255
0
0
0
254
254
254
0
0
0
254
254
254
0
0
0
0
0
0
0
0
0
254
254
254
0
0
0
0
0
0
0
0
0
254
254
254
0
0
0
254
254
254
0
0
0
254
254
254
0
0
0
0
0
0
0
0
0
255
255
255
0
0
0
