P3
# CREATOR: GIMP PNM Filter Version 1.1
3 6
255
1
8
1
255
255
255
1
8
1
1
8
1
255
255
255
1
8
1
255
255
255
255
255
255
255
255
255
0
0
0
255
255
255
0
0
0
0
0
0
255
255
255
0
0
0
1
8
1
255
255
255
1
8
1
