P3
# CREATOR: GIMP PNM Filter Version 1.1
13 8
255
1
8
1
1
8
1
1
8
1
1
8
1
1
8
1
1
8
1
31
254
31
1
8
1
1
8
1
1
8
1
1
8
1
1
8
1
1
8
1
1
8
1
1
8
1
1
8
1
1
8
1
1
8
1
31
254
31
31
254
31
31
254
31
1
8
1
1
8
1
1
8
1
1
8
1
1
8
1
1
8
1
1
8
1
1
8
1
1
8
1
1
8
1
31
254
31
31
254
31
31
254
31
1
8
1
1
8
1
1
8
1
1
8
1
1
8
1
1
8
1
31
254
31
31
254
31
31
254
31
31
254
31
31
254
31
31
254
31
31
254
31
31
254
31
31
254
31
31
254
31
31
254
31
1
8
1
31
254
31
31
254
31
31
254
31
31
254
31
31
254
31
31
254
31
31
254
31
31
254
31
31
254
31
31
254
31
31
254
31
31
254
31
31
254
31
31
254
31
31
254
31
31
254
31
31
254
31
31
254
31
31
254
31
31
254
31
31
254
31
31
254
31
31
254
31
31
254
31
31
254
31
31
254
31
31
254
31
31
254
31
31
254
31
31
254
31
31
254
31
31
254
31
31
254
31
31
254
31
31
254
31
31
254
31
31
254
31
31
254
31
31
254
31
31
254
31
31
254
31
31
254
31
31
254
31
31
254
31
31
254
31
31
254
31
31
254
31
31
254
31
31
254
31
31
254
31
31
254
31
31
254
31
